# xmcd
#
# Track frame offsets: 
#        150
#        18407
#        37477
#        60540
#        84757
#        106425
#        125432
#        149410
#        171045
#        194157
#        217302
#        237450
#        261747
#        280460
#        303775
#
# Disc length: 4329 seconds
#
# Revision: 0
# Processed by: cddbd v1.5.2PL0 Copyright (c) Steve Scherf et al.
# Submitted via: ExactAudioCopy v0.95b3
#
DISCID=ef10e70f
DTITLE=Various Artist - Super Eurobeat Vol. 226 - Extended Version
DYEAR=2013
DGENRE=Eurobeat
TTITLE0=Domino - Bad Girl
TTITLE1=Irene - Dream Away
TTITLE2=J. Storm - Dance Into The Fire
TTITLE3=Mela - Hurry Hurry Hurry
TTITLE4=Nathalie and Roberta - Angel
TTITLE5=Rich Hard - Fight
TTITLE6=J-Strak - The Jungle Is On Fire
TTITLE7=Ultraviolet - Love Is All Around Me
TTITLE8=Jeff Driller - Cactus Girl
TTITLE9=Mara Nell - 0Lady Speed Racer
TTITLE10=Norma Sheffiled Feat Futura - Take A Chance On Me
TTITLE11=Luke - Mayday
TTITLE12=Bliss - Angel Right To Me
TTITLE13=David Dima - Bad Love
TTITLE14=Sinclairestyle All Stars - Xmas Love
EXTD=
EXTT0=
EXTT1=
EXTT2=
EXTT3=
EXTT4=
EXTT5=
EXTT6=
EXTT7=
EXTT8=
EXTT9=
EXTT10=
EXTT11=
EXTT12=
EXTT13=
EXTT14=
PLAYORDER=
